<svg width="64" height="64" viewBox="0 0 64 64" fill="none" xmlns="http://www.w3.org/2000/svg">
  <!-- Background Glow -->
  <circle cx="32" cy="32" r="30" fill="url(#radialGlow)" />

  <!-- Outer Hexagon (team unity structure) -->
  <path d="M32 4L55 18V46L32 60L9 46V18L32 4Z" 
        stroke="url(#teamGradient)" stroke-width="3" fill="url(#hexFill)"/>

  <!-- Inner Neural Network (AI feel) -->
  <circle cx="32" cy="32" r="14" fill="url(#coreGradient)" />
  <circle cx="32" cy="32" r="4" fill="white"/>

  <!-- Connection Nodes -->
  <circle cx="32" cy="14" r="3" fill="#00D8FF"/>
  <circle cx="50" cy="23" r="3" fill="#00D8FF"/>
  <circle cx="50" cy="41" r="3" fill="#00D8FF"/>
  <circle cx="32" cy="50" r="3" fill="#00D8FF"/>
  <circle cx="14" cy="41" r="3" fill="#00D8FF"/>
  <circle cx="14" cy="23" r="3" fill="#00D8FF"/>

  <!-- Connection Lines -->
  <line x1="32" y1="14" x2="50" y2="23" stroke="#00D8FF" stroke-width="1.5"/>
  <line x1="50" y1="23" x2="50" y2="41" stroke="#00D8FF" stroke-width="1.5"/>
  <line x1="50" y1="41" x2="32" y2="50" stroke="#00D8FF" stroke-width="1.5"/>
  <line x1="32" y1="50" x2="14" y2="41" stroke="#00D8FF" stroke-width="1.5"/>
  <line x1="14" y1="41" x2="14" y2="23" stroke="#00D8FF" stroke-width="1.5"/>
  <line x1="14" y1="23" x2="32" y2="14" stroke="#00D8FF" stroke-width="1.5"/>

  <!-- Gradients -->
  <defs>
    <radialGradient id="radialGlow" cx="0" cy="0" r="1" gradientUnits="userSpaceOnUse" 
      gradientTransform="translate(32 32) scale(32)">
      <stop stop-color="#007ACC" stop-opacity="0.4"/>
      <stop offset="1" stop-color="#007ACC" stop-opacity="0"/>
    </radialGradient>

    <linearGradient id="teamGradient" x1="0" y1="0" x2="64" y2="64" gradientUnits="userSpaceOnUse">
      <stop stop-color="#00D8FF"/>
      <stop offset="1" stop-color="#007ACC"/>
    </linearGradient>

    <linearGradient id="hexFill" x1="0" y1="0" x2="64" y2="64" gradientUnits="userSpaceOnUse">
      <stop stop-color="#001F3F" stop-opacity="0.9"/>
      <stop offset="1" stop-color="#003366" stop-opacity="0.9"/>
    </linearGradient>

    <radialGradient id="coreGradient" cx="0" cy="0" r="1" gradientUnits="userSpaceOnUse" 
      gradientTransform="translate(32 32) scale(14)">
      <stop stop-color="#00D8FF"/>
      <stop offset="1" stop-color="#007ACC"/>
    </radialGradient>
  </defs>
</svg>
